<svg width="924" height="524" viewBox="0 0 924 524" fill="none" xmlns="http://www.w3.org/2000/svg">
<path d="M556 253.06C556 200.632 513.995 158.126 462.229 158.126C410.419 158.126 368.414 200.632 368.414 253.06C368.414 254.401 368.458 255.697 368.502 256.994C368.414 261.195 368.856 270.581 373.184 282.962C377.115 294.985 383.343 305.936 391.382 315.277C404.191 331.413 424.023 348.799 454.808 364.756C459.446 367.169 464.967 367.169 469.605 364.756C500.391 348.755 520.267 331.413 533.032 315.277C541.07 305.936 547.298 294.985 551.229 282.962C555.558 270.626 556 261.195 555.911 256.994C555.955 255.653 556 254.357 556 253.06ZM424.199 210.376C427.247 207.292 432.15 207.426 435.065 210.599L454.853 232.321L446.284 241.752L424.464 221.371C421.284 218.466 421.196 213.46 424.199 210.376ZM515.452 288.683C514.967 289.175 514.172 289.175 513.642 288.683L495.179 267.542C493.898 266.246 491.866 266.246 490.585 267.542C489.304 268.838 489.304 270.894 490.585 272.19L509.225 293.153C510.108 294.047 510.108 295.566 509.225 296.46C508.341 297.354 506.839 297.354 505.956 296.46L485.241 277.598C483.96 276.302 481.928 276.302 480.647 277.598C479.366 278.895 479.366 280.951 480.647 282.247L501.539 300.93C502.025 301.421 502.025 302.226 501.539 302.762C501.186 303.12 500.656 303.209 500.17 303.075C500.17 303.075 485.727 297.622 478.395 290.203C473.889 285.644 471.637 280.146 471.549 275.006L471.504 275.051C471.46 269.911 472.167 266.514 467.794 262L462.273 256.815L456.443 262.268C452.07 267.899 453.086 271.699 453.086 276.302L453.042 276.258C452.953 281.711 450.568 287.521 445.798 292.348C436.876 301.377 420.357 306.293 413.201 299.008C406.002 291.722 410.86 275.006 419.783 265.978C424.553 261.15 430.295 258.737 435.683 258.647L435.639 258.603C440.189 258.558 443.81 259.497 449.155 254.982L489.569 210.644C492.485 207.47 497.387 207.336 500.435 210.42C503.483 213.504 503.35 218.466 500.214 221.416L470.312 249.351L475.17 254.669C479.587 259.005 482.944 258.335 488.024 258.379L487.979 258.424C493.103 258.513 498.492 260.793 502.997 265.352C510.329 272.771 515.673 287.342 515.673 287.342C515.894 287.744 515.806 288.281 515.452 288.683Z" fill="white"/>
</svg>
